Coordinates
version=1
nRows=11
nColumns=63
inDegrees=yes

Units are S.I. units (second, meters, Newtons, ...)
If the header above contains a line with 'inDegrees', this indicates whether rotational values are in degrees (yes) or radians (no).

endheader
time	pelvis_tilt	pelvis_list	pelvis_rotation	pelvis_tx	pelvis_ty	pelvis_tz	hip_flexion_r	hip_adduction_r	hip_rotation_r	knee_angle_r	knee_angle_r_beta	ankle_angle_r	subtalar_angle_r	mtp_angle_r	hip_flexion_l	hip_adduction_l	hip_rotation_l	knee_angle_l	knee_angle_l_beta	ankle_angle_l	subtalar_angle_l	mtp_angle_l	L5_S1_Flex_Ext	L5_S1_Lat_Bending	L5_S1_axial_rotation	L4_L5_Flex_Ext	L4_L5_Lat_Bending	L4_L5_axial_rotation	L3_L4_Flex_Ext	L3_L4_Lat_Bending	L3_L4_axial_rotation	L2_L3_Flex_Ext	L2_L3_Lat_Bending	L2_L3_axial_rotation	L1_L2_Flex_Ext	L1_L2_Lat_Bending	L1_L2_axial_rotation	L1_T12_Flex_Ext	L1_T12_Lat_Bending	L1_T12_axial_rotation	Abs_r3	Abs_r2	Abs_r1	Abs_t1	Abs_t2	neck_flexion	neck_bending	neck_rotation	arm_flex_r	arm_add_r	arm_rot_r	elbow_flex_r	pro_sup_r	wrist_flex_r	wrist_dev_r	arm_flex_l	arm_add_l	arm_rot_l	elbow_flex_l	pro_sup_l	wrist_flex_l	wrist_dev_l
3.560976	2.258206	-1.427181	110.273395	0.208497	0.618403	0.830547	-0.336300	3.167389	-20.441004	7.571003	0.132139	21.487855	-2.670864	0.000000	0.499316	-1.842247	21.036200	0.748184	0.013058	22.453219	-2.047823	0.000000	0.110945	0.392202	-2.772248	0.206035	0.521629	-2.945513	0.182271	0.953601	-2.945513	0.126799	0.953601	-2.425717	0.103023	0.799779	-2.252451	0.063394	0.607521	-2.079186	0.792467	4.436671	-15.418411	0.000000	0.000000	20.603052	5.720366	10.563291	7.214261	-12.031402	70.158511	25.188261	82.091377	-11.500376	-3.684731	-3.818327	-12.002127	39.263586	35.089693	88.536631	-12.854578	3.262673
3.585366	2.331305	-1.464479	110.226328	0.208651	0.618523	0.830497	-0.295205	3.225699	-20.554773	7.433531	0.129740	21.593254	-2.443815	0.000000	0.548637	-1.915282	20.761877	0.757589	0.013222	22.323923	-1.866524	0.000000	0.114912	0.409665	-2.762371	0.213403	0.544854	-2.935019	0.188789	0.996060	-2.935019	0.131333	0.996060	-2.417074	0.106707	0.835389	-2.244426	0.065661	0.634571	-2.071778	0.820806	4.634213	-15.363477	0.000000	0.000000	20.757770	5.420733	10.945967	7.188306	-12.143945	69.941037	25.226762	81.059708	-10.965078	-3.708110	-3.600358	-11.929360	39.575605	35.010173	88.524298	-12.807285	3.433445
3.609756	2.415407	-1.465821	110.187115	0.208805	0.618679	0.830382	-0.307088	3.326473	-20.509257	7.253987	0.126606	21.606887	-2.412717	0.000000	0.560343	-2.014261	20.628401	0.758431	0.013237	22.177059	-1.881742	0.000000	0.117038	0.428813	-2.748816	0.217351	0.570322	-2.920617	0.192281	1.042616	-2.920617	0.133762	1.042616	-2.405214	0.108681	0.874436	-2.233413	0.066875	0.664232	-2.061612	0.835989	4.850821	-15.288089	0.000000	0.000000	20.844022	5.132347	11.279958	7.078577	-12.256971	69.471071	25.302259	80.254063	-10.484571	-3.693658	-3.369358	-11.853153	39.923756	34.931409	88.504885	-12.695199	3.647536
3.634146	2.508981	-1.447496	110.155628	0.208942	0.618835	0.830204	-0.350842	3.461115	-20.307651	7.050094	0.123047	21.525856	-2.602197	0.000000	0.553632	-2.130337	20.540075	0.755064	0.013178	22.045471	-1.946536	0.000000	0.119502	0.449368	-2.732186	0.221928	0.597660	-2.902948	0.196330	1.092594	-2.902948	0.136579	1.092594	-2.390663	0.110970	0.916352	-2.219901	0.068284	0.696071	-2.049139	0.853593	5.083344	-15.195598	0.000000	0.000000	20.887485	4.859416	11.592468	6.869196	-12.374387	68.706523	25.418060	79.698589	-10.032193	-3.655598	-3.132540	-11.768228	40.289123	34.849421	88.471549	-12.499030	3.920695
3.658537	2.602411	-1.385191	110.126235	0.209075	0.619022	0.829923	-0.459344	3.626334	-19.973666	6.822931	0.119083	21.366498	-2.952143	0.000000	0.494977	-2.264459	20.576424	0.744374	0.012992	21.942077	-2.147978	0.000000	0.119512	0.470033	-2.712112	0.221946	0.625144	-2.881620	0.196347	1.142838	-2.881620	0.136591	1.142838	-2.373098	0.110979	0.958491	-2.203591	0.068289	0.728081	-2.034084	0.853664	5.317107	-15.083956	0.000000	0.000000	20.824478	4.623898	11.823295	6.582368	-12.481481	67.758226	25.549199	79.371728	-9.655010	-3.595639	-2.898099	-11.685911	40.667255	34.773293	88.444633	-12.229983	4.239542
3.682927	2.689378	-1.282183	110.102094	0.209210	0.619233	0.829495	-0.632194	3.809922	-19.596826	6.582786	0.114891	21.175793	-3.350327	0.000000	0.383065	-2.412027	20.512554	0.726399	0.012678	21.922636	-2.164883	0.000000	0.118126	0.489624	-2.691702	0.219371	0.651200	-2.859933	0.194069	1.190471	-2.859933	0.135006	1.190471	-2.355239	0.109691	0.998441	-2.187008	0.067497	0.758427	-2.018776	0.843760	5.538721	-14.970439	0.000000	0.000000	20.668443	4.432964	11.977172	6.241053	-12.571683	66.731943	25.685499	79.240849	-9.360158	-3.510063	-2.700334	-11.602699	40.980291	34.704824	88.425709	-11.863907	4.591669
3.707317	2.774996	-1.154506	110.115666	0.209267	0.619440	0.828994	-0.838360	4.004751	-19.286282	6.352669	0.110875	20.975061	-3.723769	0.000000	0.248167	-2.568252	20.591197	0.711393	0.012416	21.932898	-2.280607	0.000000	0.118294	0.508440	-2.672684	0.219684	0.676226	-2.839726	0.194346	1.236222	-2.839726	0.135199	1.236222	-2.338598	0.109848	1.036812	-2.171555	0.067593	0.787574	-2.004513	0.844964	5.751580	-14.864665	0.000000	0.000000	20.407730	4.272576	12.019992	5.819240	-12.649758	65.577327	25.822445	79.375025	-9.346397	-3.474229	-2.514651	-11.516368	41.263212	34.630024	88.417562	-11.338611	5.049741
3.731707	2.846694	-0.991682	110.098372	0.209372	0.619662	0.828360	-1.090213	4.196193	-18.976476	6.146496	0.107277	20.773245	-4.043097	0.000000	0.057108	-2.724897	20.747716	0.688782	0.012022	21.953891	-2.526492	0.000000	0.117361	0.524793	-2.648317	0.217952	0.697974	-2.813837	0.192813	1.275981	-2.813837	0.134132	1.275981	-2.317278	0.108982	1.070158	-2.151758	0.067060	0.812904	-1.986238	0.838300	5.936562	-14.729147	0.000000	0.000000	20.055714	4.146765	11.958332	5.366765	-12.703005	64.337271	25.958036	79.749214	-9.364621	-3.361066	-2.381429	-11.431979	41.492459	34.547144	88.407391	-10.857905	5.471291
3.756098	2.894774	-0.803186	110.060392	0.209537	0.619892	0.827612	-1.382141	4.378399	-18.624797	5.959604	0.104015	20.531651	-4.402697	0.000000	-0.179496	-2.870852	20.946920	0.661642	0.011548	21.979768	-2.835403	0.000000	0.115513	0.536760	-2.616542	0.214519	0.713891	-2.780076	0.189776	1.305079	-2.780076	0.132019	1.305079	-2.289474	0.107265	1.094562	-2.125941	0.066004	0.831442	-1.962407	0.825096	6.071942	-14.552423	0.000000	0.000000	19.655257	4.063559	11.770533	4.909489	-12.737455	63.147627	26.090315	80.342326	-9.520106	-3.223537	-2.270100	-11.380111	41.781291	34.457525	88.378545	-10.469486	5.803464
3.780488	2.916647	-0.598091	110.007729	0.209778	0.620112	0.826755	-1.704104	4.551279	-18.182845	5.794691	0.101136	20.237314	-4.878395	0.000000	-0.450034	-3.001908	21.131749	0.633360	0.011054	22.025152	-3.114692	0.000000	0.112788	0.543712	-2.581763	0.209458	0.723137	-2.743123	0.185299	1.321981	-2.743123	0.128905	1.321981	-2.259042	0.104735	1.108738	-2.097682	0.064447	0.842210	-1.936322	0.805633	6.150579	-14.358989	0.000000	0.000000	19.257271	4.047621	11.500626	4.462709	-12.748340	61.964171	26.244699	81.173907	-9.678736	-2.986583	-2.223008	-11.358884	41.977287	34.401993	88.350480	-10.129264	6.055172
3.804878	2.911636	-0.383489	109.904693	0.210151	0.620327	0.825820	-2.034783	4.699354	-17.697615	5.680073	0.099136	19.934297	-5.341928	0.000000	-0.745571	-3.112890	21.052862	0.613868	0.010714	22.131145	-3.071861	0.000000	0.108500	0.545663	-2.537901	0.201495	0.725731	-2.696519	0.178255	1.326724	-2.696519	0.124005	1.326724	-2.220663	0.100753	1.112715	-2.062044	0.061997	0.845231	-1.903425	0.775004	6.172645	-14.115041	0.000000	0.000000	18.906461	4.074990	11.131685	4.047507	-12.736047	60.801183	26.404014	82.149236	-9.729374	-2.725414	-2.230496	-11.378504	42.097493	34.403105	88.331390	-9.901618	6.228461
